<?xml version="1.0" encoding="utf-8"?>
<!-- Generator: Adobe Illustrator 16.0.0, SVG Export Plug-In . SVG Version: 6.00 Build 0)  -->
<!DOCTYPE svg PUBLIC "-//W3C//DTD SVG 1.1//EN" "http://www.w3.org/Graphics/SVG/1.1/DTD/svg11.dtd">
<svg version="1.1" id="Layer_1" xmlns="http://www.w3.org/2000/svg" xmlns:xlink="http://www.w3.org/1999/xlink" x="0px" y="0px"
	 width="1984.252px" height="1984.252px" viewBox="0 0 1984.252 1984.252" enable-background="new 0 0 1984.252 1984.252"
	 xml:space="preserve">
<path fill="#3FA9F5" d="M1956.107,991.191c0,532.537-431.693,964.211-964.217,964.211c-532.512,0-964.197-431.674-964.197-964.211
	c0-532.512,431.686-964.19,964.197-964.19C1524.414,27.001,1956.107,458.68,1956.107,991.191z"/>
<g>
	<path fill="#FFFFFF" d="M473.974,1629.565c3.135,5.088,7.232,9.122,12.32,12.102c5.076,2.994,10.797,5.146,17.188,6.434
		c6.375,1.33,12.949,1.964,19.73,1.964c5.217,0,10.686-0.393,16.404-1.151c5.732-0.812,11.004-2.226,15.83-4.311
		c4.824-2.084,8.795-5.146,11.916-9.165c3.131-4.054,4.684-9.195,4.684-15.45c0-8.595-3.246-15.11-9.762-19.546
		c-6.502-4.392-14.654-7.995-24.43-10.709c-9.748-2.757-20.375-5.233-31.828-7.438c-11.453-2.226-22.066-5.345-31.842-9.385
		c-9.775-4.028-17.898-9.692-24.416-16.987c-6.531-7.288-9.762-17.456-9.762-30.482c0-10.157,2.266-18.873,6.84-26.163
		c4.543-7.279,10.404-13.214,17.562-17.766c7.16-4.576,15.244-7.952,24.236-10.182c8.977-2.211,17.898-3.299,26.75-3.299
		c11.467,0,21.996,0.972,31.646,2.926c9.635,1.955,18.15,5.336,25.59,10.163c7.426,4.808,13.342,11.323,17.775,19.531
		c4.418,8.189,7.047,18.419,7.816,30.671h-33.199c-0.547-6.521-2.223-11.928-5.09-16.237c-2.895-4.28-6.516-7.749-10.936-10.327
		c-4.447-2.606-9.326-4.508-14.654-5.678c-5.342-1.176-10.74-1.767-16.195-1.767c-4.961,0-9.983,0.402-15.059,1.186
		c-5.076,0.778-9.705,2.152-13.857,4.111c-4.182,1.93-7.553,4.532-10.168,7.798c-2.6,3.26-3.901,7.487-3.901,12.691
		c0,5.727,2.012,10.486,6.041,14.27c4.055,3.777,9.2,6.888,15.452,9.384c6.252,2.452,13.27,4.551,21.09,6.229
		c7.816,1.717,15.604,3.468,23.449,5.277c8.334,1.833,16.445,4.049,24.402,6.637c7.957,2.621,14.977,6.07,21.088,10.37
		c6.139,4.275,11.074,9.713,14.865,16.198c3.76,6.516,5.648,14.599,5.648,24.214c0,12.252-2.543,22.41-7.62,30.487
		c-5.062,8.073-11.707,14.579-19.914,19.542c-8.209,4.948-17.437,8.377-27.73,10.341c-10.309,1.945-20.527,2.941-30.682,2.941
		c-11.188,0-21.869-1.186-32.021-3.536c-10.168-2.336-19.146-6.182-26.977-11.521c-7.791-5.33-14.039-12.358-18.738-21.089
		c-4.699-8.726-7.299-19.338-7.832-31.842h33.24C469.164,1618.285,470.873,1624.496,473.974,1629.565z"/>
	<path fill="#FFFFFF" d="M677.513,1472.722V1502h-40.26v125.417c0,3.894,0.336,7.033,0.992,9.369
		c0.628,2.342,1.902,4.185,3.707,5.471c1.83,1.307,4.363,2.158,7.621,2.53c3.257,0.392,7.48,0.6,12.697,0.6h15.242v29.288h-25.396
		c-8.584,0-15.953-0.591-22.066-1.746c-6.137-1.181-11.088-3.323-14.852-6.448c-3.789-3.115-6.6-7.556-8.389-13.292
		c-1.846-5.717-2.74-13.277-2.74-22.661V1502h-34.389v-29.278h34.389v-60.568h33.184v60.568H677.513z"/>
	<path fill="#FFFFFF" d="M816.542,1678.989c-8.586,0-15.426-2.419-20.502-7.241c-5.076-4.827-7.605-12.683-7.605-23.647
		c-9.133,10.965-19.732,18.82-31.842,23.647c-12.123,4.822-25.201,7.241-39.27,7.241c-9.118,0-17.703-0.996-25.771-2.941
		c-8.096-1.964-15.188-5.195-21.285-9.771c-6.137-4.527-10.963-10.404-14.471-17.577c-3.525-7.159-5.287-15.817-5.287-25.965
		c0-11.483,1.973-20.853,5.875-28.137c3.9-7.299,9.061-13.215,15.424-17.79c6.391-4.552,13.674-7.996,21.885-10.361
		c8.193-2.336,16.597-4.266,25.199-5.833c9.102-1.828,17.773-3.202,25.98-4.121c8.182-0.909,15.412-2.196,21.662-3.889
		c6.25-1.693,11.214-4.17,14.85-7.449c3.652-3.25,5.484-8.005,5.484-14.24c0-7.279-1.385-13.146-4.113-17.562
		c-2.725-4.426-6.25-7.831-10.529-10.182c-4.307-2.342-9.133-3.895-14.473-4.673c-5.328-0.783-10.6-1.186-15.816-1.186
		c-14.068,0-25.785,2.685-35.154,8.025c-9.385,5.325-14.461,15.405-15.23,30.26h-33.225c0.529-12.499,3.133-23.043,7.816-31.629
		c4.686-8.586,10.949-15.565,18.754-20.9c7.816-5.335,16.808-9.195,26.961-11.531c10.15-2.355,20.836-3.507,32.035-3.507
		c9.09,0,18.168,0.629,27.145,1.939c8.992,1.296,17.115,3.985,24.414,8c7.303,4.049,13.148,9.708,17.592,17.012
		c4.42,7.284,6.629,16.779,6.629,28.509v103.927c0,7.803,0.463,13.554,1.373,17.186c0.895,3.652,3.971,5.462,9.188,5.462
		c2.865,0,6.248-0.634,10.15-1.964v25.8C834.652,1677.286,826.706,1678.989,816.542,1678.989z M770.06,1577.21
		c-6.77,1.432-13.873,2.607-21.285,3.517c-7.426,0.909-14.92,1.959-22.471,3.124c-7.553,1.176-14.32,3.076-20.307,5.669
		c-6,2.603-10.893,6.317-14.654,11.14c-3.775,4.804-5.664,11.392-5.664,19.716c0,5.461,1.104,10.09,3.33,13.867
		c2.207,3.769,5.074,6.854,8.584,9.176c3.51,2.346,7.678,4.054,12.502,5.079c4.811,1.05,9.705,1.567,14.656,1.567
		c10.934,0,20.303-1.505,28.123-4.494c7.817-2.979,14.178-6.757,19.141-11.328c4.951-4.562,8.602-9.51,10.922-14.85
		c2.363-5.345,3.539-10.336,3.539-15.019v-33.984C782.324,1573.495,776.841,1575.788,770.06,1577.21z"/>
	<path fill="#FFFFFF" d="M871.626,1472.722v42.561h0.795c6.713-18.477,15.676-24.055,25.76-31.262
		c11.439-8.217,30.498-11.517,48.467-10.999v30.149c-13.283,0-24.611,1.833-33.967,5.475c-9.395,3.643-16.947,8.969-22.695,16.016
		c-5.719,7.028-9.887,15.565-12.488,25.592c-2.615,10.027-3.917,21.544-3.917,34.585v89.837h-33.197v-201.953H871.626z"/>
	<path fill="#FFFFFF" d="M1049.492,1472.722V1502h-40.248v125.417c0,3.894,0.324,7.033,0.982,9.369
		c0.652,2.342,1.887,4.185,3.705,5.471c1.828,1.307,4.363,2.158,7.633,2.53c3.246,0.392,7.469,0.6,12.682,0.6h15.246v29.288h-25.408
		c-8.59,0-15.941-0.591-22.07-1.746c-6.115-1.181-11.062-3.323-14.854-6.448c-3.762-3.115-6.572-7.556-8.389-13.292
		c-1.832-5.717-2.742-13.277-2.742-22.661V1502h-34.387v-29.278h34.387v-60.568h33.215v60.568H1049.492z"/>
	<path fill="#FFFFFF" d="M1178.828,1674.675v-32.035h-0.783c-7.02,12.518-15.996,21.698-26.947,27.541
		c-10.936,5.867-23.826,8.809-38.676,8.809c-13.287,0-24.35-1.761-33.202-5.282c-8.867-3.526-16.039-8.532-21.49-15.043
		c-5.471-6.501-9.33-14.249-11.527-23.227c-2.221-8.997-3.329-18.946-3.329-29.902v-132.813h33.227v136.697
		c0,12.532,3.637,22.42,10.922,29.709c7.299,7.294,17.317,10.937,30.08,10.937c10.168,0,18.948-1.567,26.377-4.678
		c7.41-3.13,13.619-7.551,18.568-13.297c4.938-5.722,8.629-12.411,11.115-20.116c2.477-7.672,3.719-16.074,3.719-25.178v-114.074
		h33.217v201.953H1178.828z"/>
	<path fill="#FFFFFF" d="M1238.303,1472.722v27.329h0.77c5.48-11.179,14.066-19.323,25.801-24.417
		c11.689-5.084,24.609-7.604,38.682-7.604c15.617,0,29.209,2.858,40.803,8.601c11.596,5.717,21.23,13.466,28.906,23.231
		c7.691,9.761,13.496,21.031,17.395,33.791c3.902,12.755,5.877,26.312,5.877,40.625c0,14.327-1.906,27.886-5.68,40.626
		c-3.791,12.75-9.51,23.909-17.199,33.413c-7.678,9.5-17.303,16.998-28.877,22.444c-11.609,5.476-25.104,8.228-40.441,8.228
		c-4.969,0-10.492-0.527-16.631-1.562c-6.109-1.064-12.164-2.752-18.162-5.094c-5.973-2.346-11.652-5.538-16.979-9.577
		c-5.34-4.029-9.857-9.04-13.494-15.028h-0.77v103.902h-33.209v-278.908H1238.303z M1357.641,1544.41
		c-2.486-9.006-6.25-17.007-11.324-24.039c-5.078-7.019-11.594-12.62-19.535-16.794c-7.943-4.17-17.26-6.265-27.939-6.265
		c-11.201,0-20.682,2.23-28.514,6.656c-7.807,4.431-14.195,10.221-19.131,17.364c-4.951,7.179-8.531,15.313-10.742,24.441
		c-2.234,9.108-3.312,18.337-3.312,27.721c0,9.916,1.16,19.464,3.512,28.722c2.346,9.253,6.041,17.384,11.129,24.417
		c5.064,7.033,11.648,12.692,19.717,16.978c8.082,4.305,17.857,6.453,29.31,6.453c11.456,0,21.018-2.216,28.708-6.646
		c7.667-4.421,13.863-10.278,18.561-17.582c4.697-7.284,8.068-15.609,10.152-24.987c2.1-9.385,3.135-19.01,3.135-28.94
		C1361.365,1562.559,1360.117,1553.388,1357.641,1544.41z"/>
	<path fill="#FFFFFF" d="M1417.174,1629.565c3.129,5.088,7.24,9.122,12.305,12.102c5.088,2.994,10.811,5.146,17.201,6.434
		c6.375,1.33,12.947,1.964,19.729,1.964c5.221,0,10.672-0.393,16.402-1.151c5.723-0.812,11.01-2.226,15.803-4.311
		c4.828-2.084,8.812-5.146,11.934-9.165c3.129-4.054,4.695-9.195,4.695-15.45c0-8.595-3.26-15.11-9.775-19.546
		c-6.5-4.392-14.641-7.995-24.416-10.709c-9.762-2.757-20.373-5.233-31.828-7.438c-11.467-2.226-22.08-5.345-31.826-9.385
		c-9.791-4.028-17.941-9.692-24.418-16.987c-6.515-7.288-9.789-17.456-9.789-30.482c0-10.157,2.283-18.873,6.84-26.163
		c4.561-7.279,10.404-13.214,17.576-17.766c7.174-4.576,15.246-7.952,24.225-10.182c8.992-2.211,17.91-3.299,26.762-3.299
		c11.439,0,22.014,0.972,31.648,2.926c9.635,1.955,18.164,5.336,25.588,10.163c7.414,4.808,13.355,11.323,17.762,19.531
		c4.445,8.189,7.018,18.419,7.83,30.671h-33.211c-0.531-6.521-2.225-11.928-5.078-16.237c-2.863-4.28-6.516-7.749-10.936-10.327
		c-4.432-2.606-9.312-4.508-14.652-5.678c-5.344-1.176-10.756-1.767-16.209-1.767c-4.953,0-9.973,0.402-15.047,1.186
		c-5.074,0.778-9.703,2.152-13.857,4.111c-4.18,1.93-7.566,4.532-10.168,7.798c-2.602,3.26-3.928,7.487-3.928,12.691
		c0,5.727,2.027,10.486,6.08,14.27c4.045,3.777,9.176,6.888,15.426,9.384c6.254,2.452,13.301,4.551,21.09,6.229
		c7.816,1.717,15.633,3.468,23.434,5.277c8.334,1.833,16.49,4.049,24.418,6.637c7.957,2.621,14.988,6.07,21.104,10.37
		c6.109,4.275,11.076,9.713,14.85,16.198c3.762,6.516,5.678,14.599,5.678,24.214c0,12.252-2.559,22.41-7.637,30.487
		c-5.088,8.073-11.701,14.579-19.91,19.542c-8.213,4.948-17.465,8.377-27.73,10.341c-10.293,1.945-20.504,2.941-30.686,2.941
		c-11.182,0-21.881-1.186-32.02-3.536c-10.168-2.336-19.145-6.182-26.977-11.521c-7.801-5.33-14.051-12.358-18.738-21.089
		c-4.696-8.726-7.299-19.338-7.816-31.842h33.197C1412.361,1618.285,1414.039,1624.496,1417.174,1629.565z"/>
</g>
<g>
	<path fill="#FFFFFF" d="M432.849,306.38h199.83v719.224H484.63V482.128h-98.084L432.849,306.38z"/>
	<path fill="#FFFFFF" d="M872.269,288.771c54.145,0,100.838,12.554,140.037,37.67c39.184,25.11,69.459,63.49,90.842,115.168
		c21.352,51.678,32.035,123.599,32.035,215.808c0,93.162-10.848,165.653-32.566,217.472c-21.674,51.818-50.862,89.886-87.54,114.23
		c-36.686,24.31-82.93,36.484-138.783,36.484c-55.852,0-102.768-12.242-140.775-36.723c-38.023-24.489-67.795-61.686-89.33-111.607
		c-21.522-49.903-32.303-120.962-32.303-213.179c0-128.771,21.031-222.06,63.066-279.963
		C723.716,320.56,788.812,288.771,872.269,288.771z"/>
	<path fill="#FFFFFF" d="M1336.623,288.771c54.174,0,100.871,12.554,140.051,37.67c39.184,25.11,69.457,63.49,90.842,115.168
		c21.365,51.678,32.035,123.599,32.035,215.808c0,93.162-10.85,165.653-32.553,217.472c-21.689,51.818-50.875,89.886-87.553,114.23
		c-36.67,24.31-82.926,36.484-138.764,36.484c-55.838,0-102.799-12.242-140.793-36.723c-38.023-24.489-67.795-61.686-89.33-111.607
		c-21.534-49.903-32.301-120.962-32.301-213.179c0-128.771,21.032-222.06,63.108-279.963
		C1188.1,320.56,1253.211,288.771,1336.623,288.771z"/>
</g>
<g>
	<path fill="#FFFFFF" d="M450.078,1172.265c6.516-20.155,16.291-37.655,29.324-52.534c13.033-14.868,29.113-26.574,48.273-35.131
		c19.129-8.552,41.125-12.822,65.975-12.822c25.242,0,47.349,4.271,66.283,12.822c18.938,8.557,34.918,20.263,47.951,35.131
		c13.033,14.879,22.811,32.379,29.328,52.534c6.514,20.166,9.787,41.854,9.787,65.072c0,23.212-3.273,44.8-9.787,64.757
		c-6.518,19.957-16.295,37.37-29.328,52.229c-13.033,14.878-29.014,26.487-47.951,34.825c-18.934,8.345-41.041,12.523-66.283,12.523
		c-24.85,0-46.846-4.179-65.975-12.523c-19.16-8.338-35.24-19.947-48.273-34.825c-13.033-14.859-22.809-32.272-29.324-52.229
		c-6.518-19.957-9.775-41.545-9.775-64.757C440.302,1214.119,443.56,1192.431,450.078,1172.265z M502.921,1288.347
		c5.092,14.874,12.127,27.3,21.09,37.27c8.947,9.982,19.438,17.62,31.449,22.912c12.012,5.291,24.75,7.938,38.189,7.938
		s26.164-2.646,38.176-7.938c12.014-5.292,22.502-12.93,31.464-22.912c8.963-9.97,15.985-22.396,21.09-37.27
		c5.076-14.863,7.635-31.86,7.635-51.01c0-19.141-2.559-36.137-7.635-51.016c-5.105-14.864-12.127-27.382-21.09-37.568
		c-8.962-10.173-19.451-17.922-31.464-23.223c-12.012-5.287-24.736-7.942-38.176-7.942s-26.178,2.655-38.189,7.942
		c-12.012,5.301-22.502,13.05-31.449,23.223c-8.963,10.187-15.998,22.704-21.09,37.568c-5.088,14.879-7.635,31.875-7.635,51.016
		C495.287,1256.486,497.833,1273.483,502.921,1288.347z"/>
	<path fill="#FFFFFF" d="M784.953,1079.105v42.764h1.215c8.561-17.51,21.998-30.241,40.332-38.179
		c18.317-7.946,38.483-11.913,60.481-11.913c24.43,0,45.713,4.483,63.836,13.438c18.125,8.967,33.199,21.074,45.209,36.345
		c12.02,15.279,21.078,32.9,27.188,52.854c6.115,19.961,9.176,41.133,9.176,63.538c0,22.399-2.965,43.58-8.865,63.528
		c-5.916,19.962-14.879,37.38-26.879,52.234c-12.029,14.873-27.104,26.579-45.213,35.131c-18.123,8.552-39.211,12.827-63.234,12.827
		c-7.734,0-16.404-0.817-25.969-2.438c-9.566-1.63-19.031-4.281-28.4-7.952c-9.37-3.661-18.236-8.639-26.572-14.961
		c-8.361-6.307-15.381-14.144-21.088-23.521h-1.215v136.324h-51.938v-410.019H784.953z M971.595,1191.216
		c-3.887-14.056-9.787-26.584-17.717-37.578c-7.943-10.994-18.137-19.749-30.555-26.274c-12.418-6.501-26.975-9.775-43.672-9.775
		c-17.521,0-32.387,3.468-44.607,10.39c-12.209,6.937-22.209,15.986-29.928,27.188c-7.748,11.208-13.354,23.924-16.809,38.184
		c-3.467,14.264-5.189,28.712-5.189,43.377c0,15.488,1.834,30.449,5.498,44.901c3.664,14.468,9.464,27.184,17.41,38.184
		c7.941,10.999,18.221,19.855,30.847,26.569c12.627,6.729,27.897,10.085,45.825,10.085c17.914,0,32.893-3.458,44.904-10.385
		c12.014-6.922,21.689-16.088,29.018-27.483c7.326-11.405,12.627-24.446,15.885-39.107c3.258-14.665,4.895-29.723,4.895-45.206
		C977.4,1219.613,975.456,1205.263,971.595,1191.216z"/>
	<path fill="#FFFFFF" d="M1252.078,1374.798c-23.633,17.926-53.365,26.874-89.193,26.874c-25.268,0-47.15-4.067-65.68-12.214
		c-18.545-8.145-34.106-19.555-46.735-34.211c-12.631-14.671-22.096-32.176-28.418-52.539c-6.303-20.359-9.873-42.551-10.68-66.59
		c0-24.03,3.662-46.024,10.99-65.986c7.342-19.947,17.619-37.259,30.85-51.93c13.242-14.66,28.914-26.057,47.053-34.217
		c18.109-8.14,37.965-12.208,59.559-12.208c28.107,0,51.42,5.805,69.947,17.408c18.529,11.608,33.395,26.376,44.611,44.287
		c11.188,17.931,18.936,37.481,23.211,58.652c4.268,21.187,5.998,41.352,5.191,60.481h-236.432
		c-0.416,13.858,1.219,26.985,4.881,39.407c3.666,12.431,9.568,23.42,17.719,32.988c8.155,9.577,18.53,17.214,31.159,22.912
		c12.625,5.713,27.488,8.552,44.607,8.552c21.984,0,40.012-5.094,54.062-15.271c14.057-10.177,23.314-25.664,27.803-46.43h51.32
		C1290.967,1330.201,1275.697,1356.877,1252.078,1374.798z M1239.547,1171.965c-4.684-10.999-10.99-20.465-18.934-28.407
		c-7.941-7.942-17.311-14.25-28.107-18.941c-10.795-4.678-22.693-7.028-35.729-7.028c-13.453,0-25.564,2.351-36.361,7.028
		c-10.795,4.691-20.063,11.101-27.797,19.251s-13.844,17.616-18.322,28.397c-4.488,10.806-7.129,22.309-7.943,34.526h181.446
		C1246.971,1194.573,1244.232,1182.964,1239.547,1171.965z"/>
	<path fill="#FFFFFF" d="M1333.199,1079.105v50.096h1.229c21.578-38.279,55.785-57.424,102.631-57.424
		c20.764,0,38.076,2.854,51.92,8.552c13.848,5.713,25.061,13.649,33.607,23.822c8.557,10.186,14.568,22.303,18.021,36.35
		c3.455,14.056,5.191,29.631,5.191,46.744v207.708h-51.926v-213.822c0-19.546-5.703-35.029-17.098-46.435
		c-11.416-11.396-27.102-17.108-47.045-17.108c-15.885,0-29.631,2.447-41.24,7.338c-11.604,4.886-21.283,11.821-29.016,20.77
		c-7.744,8.963-13.549,19.454-17.41,31.465c-3.873,12.015-5.803,25.152-5.803,39.406v178.387h-51.936v-315.848H1333.199z"/>
</g>
</svg>
